<svg xmlns="http://www.w3.org/2000/svg" xmlns:xlink="http://www.w3.org/1999/xlink" width="422.403" height="116.161" viewBox="0 0 422.403 116.161"><defs><style>.a{fill:none;}.b{clip-path:url(#a);}</style><clipPath id="a"><rect class="a" width="422.403" height="116.161"/></clipPath></defs><g transform="translate(0)"><g class="b" transform="translate(0 0)"><path d="M295.681,22.926a3.89,3.89,0,0,1,2.041-3.3L335.881.528a5.713,5.713,0,0,1,4.178-.219l80.207,30.107A3.418,3.418,0,0,1,422.4,33.5V93.533a3.894,3.894,0,0,1-2.042,3.3l-38.158,19.1s-2.041,1.021-2.041-1.258V82.238s0-2.28-2.041-1.259l-38.158,19.1s-2.04,1.021-2.04-1.258V66.381s0-2.28-2.042-1.258l-38.158,19.1s-2.041,1.022-2.041-1.258ZM22.447,84.481H20.361a1.463,1.463,0,0,1-1.49-1.489v-22.3c0-1.241.349-5.365.4-5.861H18.126c-.049.5-.545,4.619-.894,5.861L14.7,69.335a1.391,1.391,0,0,1-1.441.992H10.677a1.389,1.389,0,0,1-1.439-.992L6.7,60.693c-.347-1.241-.843-5.365-.894-5.861H4.669c.049.5.4,4.619.4,5.861v22.3a1.462,1.462,0,0,1-1.489,1.489H1.49A1.434,1.434,0,0,1,0,82.992V50.611a1.463,1.463,0,0,1,1.49-1.489H7.2a1.363,1.363,0,0,1,1.392.943l2.83,11.671a36.055,36.055,0,0,1,.547,3.873,36.011,36.011,0,0,1,.545-3.873l2.831-11.671a1.363,1.363,0,0,1,1.39-.943h5.712a1.463,1.463,0,0,1,1.49,1.489V82.992a1.463,1.463,0,0,1-1.49,1.489M50.8,70.674V82.992a1.464,1.464,0,0,1-1.49,1.489H47.229a1.463,1.463,0,0,1-1.49-1.489V73.406H35.607v9.586a1.422,1.422,0,0,1-1.439,1.489H32.032a1.463,1.463,0,0,1-1.49-1.489V70.674a.884.884,0,0,1,.049-.3L35.9,50.215a1.441,1.441,0,0,1,1.49-1.092H43.95a1.439,1.439,0,0,1,1.49,1.092l5.314,20.162a.86.86,0,0,1,.051.3m-5.861-2.334L41.269,54.187H40.077L36.4,68.341Zm29.2,16.14H57.856a1.463,1.463,0,0,1-1.49-1.489V80.906a1.463,1.463,0,0,1,1.49-1.49h5.612V54.187H58.4a1.463,1.463,0,0,1-1.49-1.49V50.611a1.463,1.463,0,0,1,1.49-1.489H73.6a1.462,1.462,0,0,1,1.489,1.489V52.7a1.463,1.463,0,0,1-1.489,1.49H68.533V79.416h5.612a1.463,1.463,0,0,1,1.49,1.49v2.086a1.463,1.463,0,0,1-1.49,1.489m29.038,0H97.422a1.426,1.426,0,0,1-1.439-.992l-6.7-22.795a60,60,0,0,1-1.143-5.91H86.944c.051.5.447,4.669.447,5.91v22.3a1.463,1.463,0,0,1-1.49,1.489H83.816a1.463,1.463,0,0,1-1.49-1.489V50.611a1.5,1.5,0,0,1,1.539-1.489h5.712a1.383,1.383,0,0,1,1.439.943l6.7,22.795c.4,1.29,1.094,5.463,1.143,5.959h1.192c-.051-.5-.447-4.669-.447-5.959V50.611a1.463,1.463,0,0,1,1.49-1.489h2.085a1.463,1.463,0,0,1,1.49,1.489V82.992a1.463,1.463,0,0,1-1.49,1.489m26.271,0h-16.24a1.462,1.462,0,0,1-1.489-1.489V81.2a3.04,3.04,0,0,1,.4-1.688l11.771-25.328H113.762a1.5,1.5,0,0,1-1.539-1.49V50.611a1.463,1.463,0,0,1,1.49-1.489h14.7a1.463,1.463,0,0,1,1.49,1.489v2.037a4.292,4.292,0,0,1-.4,1.539L117.735,79.416h11.72a1.463,1.463,0,0,1,1.49,1.49v2.086a1.463,1.463,0,0,1-1.49,1.489M16.685,35.9H14.6a1.463,1.463,0,0,1-1.489-1.49V20.758H5.065V34.413a1.463,1.463,0,0,1-1.49,1.49H1.49A1.463,1.463,0,0,1,0,34.413V2.037A1.463,1.463,0,0,1,1.49.547H3.575a1.463,1.463,0,0,1,1.49,1.49V15.693H13.11V2.037A1.463,1.463,0,0,1,14.6.547h2.086a1.463,1.463,0,0,1,1.49,1.49V34.413a1.463,1.463,0,0,1-1.49,1.49m8.84-8.045V8.592A8.594,8.594,0,0,1,34.115,0h1.49A8.6,8.6,0,0,1,44.2,8.592V27.858a8.627,8.627,0,0,1-8.591,8.592h-1.49a8.626,8.626,0,0,1-8.591-8.592M30.59,8.592V27.858a3.507,3.507,0,0,0,3.526,3.526h1.49a3.507,3.507,0,0,0,3.526-3.526V8.592a3.507,3.507,0,0,0-3.526-3.526h-1.49A3.507,3.507,0,0,0,30.59,8.592m30.5,27.858H59.553a8.594,8.594,0,0,1-8.591-8.592V8.592A8.626,8.626,0,0,1,59.553,0h1.539a8.637,8.637,0,0,1,8.64,8.592V9.634a1.463,1.463,0,0,1-1.49,1.49H66.158a1.463,1.463,0,0,1-1.49-1.49V8.592a3.549,3.549,0,0,0-3.575-3.526H59.553a3.539,3.539,0,0,0-3.526,3.526V27.858a3.539,3.539,0,0,0,3.526,3.526h1.539a3.549,3.549,0,0,0,3.575-3.526V26.27a1.464,1.464,0,0,1,1.49-1.49h2.085a1.464,1.464,0,0,1,1.49,1.49v1.588a8.6,8.6,0,0,1-8.64,8.592M93.171,35.9H91.086a1.463,1.463,0,0,1-1.49-1.49V20.758H81.551V34.413a1.463,1.463,0,0,1-1.489,1.49H77.976a1.463,1.463,0,0,1-1.49-1.49V2.037a1.463,1.463,0,0,1,1.49-1.49h2.086a1.463,1.463,0,0,1,1.489,1.49V15.693H89.6V2.037a1.463,1.463,0,0,1,1.49-1.49h2.085a1.463,1.463,0,0,1,1.49,1.49V34.413a1.463,1.463,0,0,1-1.49,1.49m18.871.547h-1.986a8.6,8.6,0,0,1-8.591-8.592V26.766a1.462,1.462,0,0,1,1.489-1.489h2.086a1.463,1.463,0,0,1,1.49,1.489v1.092a3.507,3.507,0,0,0,3.526,3.526h1.986a3.507,3.507,0,0,0,3.526-3.526V26.27c0-6.9-13.657-5.71-13.657-16.138V8.592A8.627,8.627,0,0,1,110.5,0H111.6a8.626,8.626,0,0,1,8.591,8.592V9.634a1.463,1.463,0,0,1-1.49,1.49h-2.086a1.463,1.463,0,0,1-1.489-1.49V8.592A3.54,3.54,0,0,0,111.6,5.066H110.5a3.538,3.538,0,0,0-3.524,3.526v1.539c0,6.355,13.656,5.412,13.656,16.138v1.588a8.6,8.6,0,0,1-8.591,8.592m24.68,0h-1.539a8.594,8.594,0,0,1-8.591-8.592V8.592A8.626,8.626,0,0,1,135.183,0h1.539a8.637,8.637,0,0,1,8.64,8.592V9.634a1.463,1.463,0,0,1-1.489,1.49h-2.086a1.463,1.463,0,0,1-1.49-1.49V8.592a3.549,3.549,0,0,0-3.575-3.526h-1.539a3.539,3.539,0,0,0-3.526,3.526V27.858a3.539,3.539,0,0,0,3.526,3.526h1.539a3.549,3.549,0,0,0,3.575-3.526V26.27a1.464,1.464,0,0,1,1.49-1.49h2.086a1.464,1.464,0,0,1,1.489,1.49v1.588a8.6,8.6,0,0,1-8.64,8.592m31.929-.547h-2.085a1.463,1.463,0,0,1-1.49-1.49V20.758h-8.044V34.413a1.464,1.464,0,0,1-1.49,1.49h-2.086a1.464,1.464,0,0,1-1.49-1.49V2.037a1.464,1.464,0,0,1,1.49-1.49h2.086a1.464,1.464,0,0,1,1.49,1.49V15.693h8.044V2.037a1.463,1.463,0,0,1,1.49-1.49h2.085a1.463,1.463,0,0,1,1.49,1.49V34.413a1.463,1.463,0,0,1-1.49,1.49m19.268.547h-1.092a8.584,8.584,0,0,1-8.542-8.592V2.037a1.464,1.464,0,0,1,1.49-1.49h2.036a1.463,1.463,0,0,1,1.49,1.49V27.858a3.54,3.54,0,0,0,3.526,3.526h1.092a3.539,3.539,0,0,0,3.526-3.526V2.037a1.464,1.464,0,0,1,1.49-1.49h2.036a1.463,1.463,0,0,1,1.49,1.49V27.858a8.584,8.584,0,0,1-8.541,8.592m32.129-.547h-14.2a1.463,1.463,0,0,1-1.489-1.49V2.037a1.463,1.463,0,0,1,1.489-1.49h2.086a1.463,1.463,0,0,1,1.49,1.49v28.8h10.626a1.463,1.463,0,0,1,1.49,1.49v2.085a1.463,1.463,0,0,1-1.49,1.49m23.456,0H228.258a1.464,1.464,0,0,1-1.49-1.49V1.986a1.453,1.453,0,0,1,1.49-1.439h15.195a1.5,1.5,0,0,1,1.539,1.49V4.122a1.537,1.537,0,0,1-1.539,1.49h-11.62V15.693h10.579a1.506,1.506,0,0,1,1.539,1.49v2.085a1.506,1.506,0,0,1-1.539,1.49H231.833V30.838H243.5a1.463,1.463,0,0,1,1.489,1.49v2.085A1.463,1.463,0,0,1,243.5,35.9" transform="translate(0 0)"/></g></g></svg>