<svg xmlns="http://www.w3.org/2000/svg" xmlns:xlink="http://www.w3.org/1999/xlink" width="639.457" height="170.631" viewBox="0 0 639.457 170.631"><defs><style>.a{fill:none;}.b{clip-path:url(#a);}.c{fill:#a71b71;}.d{fill:#c22e0c;}.e{fill:#e30613;}.f{fill:#ffd500;}.g{fill:#006e89;}.h{fill:#aa1346;}.i{fill:#408927;}.j{fill:#0061a7;}.k{fill:#e5007d;}.l{fill:#ef7d00;}.m{fill:#00afcb;}.n{fill:#e50051;}.o{fill:#ae0f0a;}.p{fill:#f59c00;}.q{fill:#95c11f;}.r{fill:#00b1eb;}</style><clipPath id="a"><rect class="a" width="639.457" height="170.631"/></clipPath></defs><path d="M327.769,113.385V76.371l-15.956,24.217h-.323L295.7,76.614v36.771h-12.23V56.69h13.445l14.9,23.974,14.9-23.974h13.446v56.695Z"/><path d="M390.382,113.385,385.2,100.67H361.226l-5.184,12.715H343.325l24.3-56.68h11.5l24.3,56.68Zm-17.17-42.117-7.533,18.387h15.066Z"/><rect width="12.475" height="56.695" transform="translate(407.072 56.69)"/><path d="M468.224,113.385,440.767,77.344v36.041H428.456V56.69h11.5L466.523,91.6V56.69h12.31v56.695Z"/><path d="M485.884,113.385v-9.477l31.184-36.285H486.857V56.69h46.248v9.476l-31.184,36.285h31.184v10.934Z"/><path d="M540.154,113.385V56.69H582.92v11.1H552.547v11.5h26.728v11.1H552.547v11.906h30.777v11.1Z"/><g class="b"><path d="M624.877,113.385,612.728,95.242h-9.8v18.143H590.455V56.69h25.918c13.363,0,21.383,7.046,21.383,18.709v.163c0,9.151-4.942,14.9-12.149,17.575l13.85,20.248Zm.244-37.338c0-5.346-3.727-8.1-9.8-8.1H602.928v16.28h12.634c6.077,0,9.559-3.239,9.559-8.018Z"/><path class="c" d="M56.693,0,0,56.692H56.693Z"/><path class="d" d="M226.771,0,170.079,56.692h56.692Z"/><path class="e" d="M56.693,0V56.692h56.692Z"/><path class="f" d="M170.079,0,113.386,56.692h56.693Z"/><path class="g" d="M0,113.385H56.693L0,56.692Z"/><path class="h" d="M226.773,113.385,170.079,56.692v56.693Z"/><path class="i" d="M0,170.079H56.693V113.386Z"/><path class="j" d="M170.079,170.079l56.693-56.693v56.693Z"/><path class="k" d="M0,0V56.692L56.693,0Z"/><path class="l" d="M170.079,0V56.692L226.772,0Z"/><path class="m" d="M0,56.692l56.693,56.693V56.692Z"/><path class="n" d="M170.079,56.692l56.693,56.693V56.692Z"/><path class="o" d="M56.693,56.692l56.692,56.693V56.692Z"/><path class="p" d="M170.079,56.692l-56.693,56.693V56.692Z"/><path class="q" d="M0,113.385v56.693l56.693-56.693Z"/><path class="r" d="M226.773,113.385l-56.693,56.693V113.385Z"/><path d="M303.054,161.446a8.113,8.113,0,0,1-3.174,6.633,12.383,12.383,0,0,1-8.016,2.551,17.048,17.048,0,0,1-9.684-2.8l1.883-3.174a12.948,12.948,0,0,0,7.747,2.474,8.785,8.785,0,0,0,4.734-1.237,4.575,4.575,0,0,0,2.313-4.089q0-3.443-3.981-6.132-3.711-2.369-7.424-4.735a9.684,9.684,0,0,1-3.981-7.748,8.164,8.164,0,0,1,2.744-6.348,10.756,10.756,0,0,1,7.478-2.475,16.921,16.921,0,0,1,7.855,1.721v4.2a13.561,13.561,0,0,0-7.718-2.259,8.067,8.067,0,0,0-4.5,1.128,4.187,4.187,0,0,0-1.93,3.706q0,3.222,4.075,5.962l7.507,4.833a9.741,9.741,0,0,1,4.074,7.789"/><path d="M332.712,134.639l-1.4,3.658h-10.06v31.8h-3.928V138.3H307.158v-3.658Z"/><rect width="3.928" height="35.454" transform="translate(338.191 134.639)"/><path d="M369.1,134.639,367.49,138.3H355.654v12H367.49v3.659H355.654v16.14h-3.928V134.639Z"/><path d="M399.662,134.639l-1.4,3.658H388.2v31.8h-3.928V138.3H374.107v-3.658Z"/><path d="M431.257,158.257q0,6.027-3.658,9.308-3.5,3.066-9.629,3.066t-9.361-3.12q-3.445-3.336-3.444-10.169v-22.7h3.928V157.4q0,4.79,2.527,7.371a8.613,8.613,0,0,0,6.457,2.313q9.252,0,9.254-9.361v-23.08h3.926Z"/><path d="M470.16,170.093h-3.641l-17.992-23.884a36.333,36.333,0,0,1-3.707-5.545v29.429h-3.928V134.639h4.09L462.2,157.664a45.779,45.779,0,0,1,4.033,5.973v-29h3.928Z"/><path d="M507.023,167.833a23.605,23.605,0,0,1-11.621,2.8,17.215,17.215,0,0,1-12.723-4.923q-4.921-4.921-4.924-12.777,0-8.34,5.112-13.451t13.4-5.111a21.313,21.313,0,0,1,9.846,2.153v4.25a21.162,21.162,0,0,0-10.061-2.744q-6.618,0-10.357,3.927t-3.738,10.438q0,6.832,3.845,10.706t10.52,3.874a13.218,13.218,0,0,0,6.777-1.453V152.984h3.928Z"/></g></svg>