<svg xmlns="http://www.w3.org/2000/svg" width="2203" height="49" viewBox="0 0 2203 49"><defs><style>.a{fill:#408927;}.b{fill:#95c11f;}.c{fill:#006e89;}.d{fill:#00afcb;}.e{fill:#a71b71;}.f{fill:#e6007e;}.g{fill:#ae0f0a;}.h{fill:#e1001a;}.i{fill:#f59c00;}.j{fill:#ffd500;}.k{fill:#ef7d00;}.l{fill:#c22e0c;}.m{fill:#e50051;}.n{fill:#aa1346;}.o{fill:#00b1eb;}.p{fill:#0062a7;}</style></defs><g transform="translate(-169 -1425)"><rect class="a" width="145" height="49" transform="translate(169 1425)"/><rect class="b" width="145" height="49" transform="translate(314 1425)"/><rect class="c" width="145" height="49" transform="translate(459 1425)"/><rect class="d" width="145" height="49" transform="translate(581 1425)"/><rect class="e" width="145" height="49" transform="translate(718 1425)"/><rect class="f" width="145" height="49" transform="translate(855 1425)"/><rect class="g" width="145" height="49" transform="translate(992 1425)"/><rect class="h" width="145" height="49" transform="translate(1129 1425)"/><rect class="i" width="145" height="49" transform="translate(1267 1425)"/><rect class="j" width="145" height="49" transform="translate(1404 1425)"/><rect class="k" width="145" height="49" transform="translate(1541 1425)"/><rect class="l" width="145" height="49" transform="translate(1678 1425)"/><rect class="m" width="145" height="49" transform="translate(1815 1425)"/><rect class="n" width="145" height="49" transform="translate(1937 1425)"/><rect class="o" width="145" height="49" transform="translate(2082 1425)"/><rect class="p" width="145" height="49" transform="translate(2227 1425)"/></g></svg>